<svg xmlns="http://www.w3.org/2000/svg" xmlns:xlink="http://www.w3.org/1999/xlink" viewBox="0 0 544.82 276.75"><defs><style>.cls-1{fill:#d15b4d;stroke:#f16329;stroke-width:5px;}.cls-1,.cls-2,.cls-4,.cls-5{stroke-miterlimit:10;}.cls-2{fill:#f99d2b;stroke:#f08725;stroke-width:7px;}.cls-3{fill:#231f20;}.cls-4{fill:none;}.cls-4,.cls-5{stroke:#231f20;stroke-width:4px;}.cls-5{fill-opacity:0.46;fill:url(#Glasses);}.cls-6{opacity:0.45;fill:url(#Glasses-2);}</style><linearGradient id="Glasses" x1="98.27" y1="112.09" x2="174.18" y2="112.09" gradientUnits="userSpaceOnUse"><stop offset="0" stop-color="#fff"/><stop offset="1" stop-color="#25a9e0"/></linearGradient><linearGradient id="Glasses-2" x1="4.35" y1="112.09" x2="70.64" y2="112.09" xlink:href="#Glasses"/></defs><g id="Layer_2" data-name="Layer 2"><g id="Layer_1-2" data-name="Layer 1"><polyline class="cls-1" points="97.92 273.25 322.3 250.12 444.76 196.41 533.92 73.94 541.96 3.04 364.19 34.19 222.39 29.9 112.37 14.24"/><ellipse class="cls-2" cx="97.92" cy="143.74" rx="94.42" ry="129.5"/></g><g id="Layer_2-2" data-name="Layer 2"><path class="cls-3" d="M174.89,86.15a.71.71,0,0,1-.75-.66l-.36-6a.7.7,0,0,1,.66-.75l65.72-4,1.41-.09,3.64-.22a5.43,5.43,0,0,1,1.39.14l42.19,11.3a1.06,1.06,0,0,1,.73.89l.55,9.11a.45.45,0,0,1-.63.48l-42.81-14a4.29,4.29,0,0,0-1.38-.18l-3.1.23-1.41.09Z"/><path class="cls-4" d="M98.27,96.54l-2.58-4.29a5.85,5.85,0,0,0-4.87-3.12h-13a5.9,5.9,0,0,0-5,3.43l-2.15,4"/><path class="cls-5" d="M107.48,80.35h66.7V97.08c-.13,50.94-38.29,46.66-38.29,46.66-4.07.09-37.62,3.79-37.62-46.83l.31-8A8.91,8.91,0,0,1,107.48,80.35Z"/><path class="cls-6" d="M12.39,81.37H63.16c4.14,0,7.48,3.71,7.48,8.29v7.9c-.12,49.32-33.44,45.17-33.44,45.17-3.55.08-32.85,3.66-32.85-45.33l.27-7.74C4.78,85,8.21,81.37,12.39,81.37Z"/><path class="cls-3" d="M39.1,145.43c-.94,0-1.63-.05-2-.08h-.36c-9.06.46-16.61-2.12-22.43-7.66C6,129.75,3.3,116.75,3.3,98l.2-8.83c.21-6.07,3.28-10.38,8.89-10.38H63.16c5.57,0,10.1,4.89,10.1,10.91v7.9c-.05,18.64-4.7,32.17-13.85,40.22A30.9,30.9,0,0,1,39.1,145.43ZM12.39,84c-2.78,0-5.05,2.54-5.16,5.77L7,97.49c0,17.21,3.69,29.5,11,36.42s15.75,6.37,18.57,6.23l.64,0h.19l.2,0A25.83,25.83,0,0,0,56,133.8c7.92-7,12-19.23,12-36.25V89.66C68,86.53,65.85,84,63.16,84Z"/><path class="cls-4" d="M170,78.38V95.11c-.14,50.76-30.32,48.9-38.29,48.72"/></g></g></svg>